<?xml version="1.0" encoding="UTF-8" standalone="no"?><!DOCTYPE svg PUBLIC "-//W3C//DTD SVG 1.1//EN" "http://www.w3.org/Graphics/SVG/1.1/DTD/svg11.dtd"><svg width="100%" height="100%" viewBox="0 0 130 63" version="1.1" xmlns="http://www.w3.org/2000/svg" xmlns:xlink="http://www.w3.org/1999/xlink" xml:space="preserve" xmlns:serif="http://www.serif.com/" style="fill-rule:evenodd;clip-rule:evenodd;stroke-linejoin:round;stroke-miterlimit:2;"><path d="M43.668,32.479l-19.71,-0c-0.441,-0 -0.792,-0.36 -0.792,-0.801l0,-0.99c0,0.221 0.087,0.331 0.23,0.331c0.143,-0 0.341,-0.11 0.562,-0.331l9.054,-9.054c0.441,-0.441 0.801,-1.161 0.801,-1.602l-0,-8.856l9.855,-0c0.441,-0 0.801,0.36 0.801,0.801l0,19.701c0,0.441 -0.36,0.801 -0.801,0.801Z" style="fill:#71828c;fill-rule:nonzero;"/><path d="M33.012,0.331l-9.054,9.054c-0.441,0.441 -0.792,1.152 -0.792,1.602l0,19.701c0,0.441 0.351,0.441 0.792,-0l9.054,-9.054c0.441,-0.441 0.801,-1.161 0.801,-1.602l-0,-19.701c-0,-0.441 -0.36,-0.441 -0.801,-0Z" style="fill:#ed1c24;fill-rule:nonzero;"/><path d="M23.396,31.019c-0.143,-0 -0.23,-0.11 -0.23,-0.331l0,-18.711c0,-0.441 0.351,-0.801 0.792,-0.801l9.855,-0l-0,8.856c-0,0.441 -0.36,1.161 -0.801,1.602l-9.054,9.054c-0.221,0.221 -0.419,0.331 -0.562,0.331Z" style="fill:#8b0c0e;fill-rule:nonzero;"/><path d="M10.891,43.538c-0.145,-0 -0.235,-0.11 -0.235,-0.331l0,-10.728l9.846,-0c0.441,-0 0.801,-0.36 0.801,-0.801l0,0.873c0,0.441 -0.36,1.161 -0.801,1.602l-9.045,9.054c-0.221,0.221 -0.421,0.331 -0.566,0.331Z" style="fill:#71828c;fill-rule:nonzero;"/><path d="M20.502,11.176l-19.701,-0c-0.441,-0 -0.801,0.36 -0.801,0.801l0,19.701c0,0.441 0.36,0.801 0.801,0.801l19.701,-0c0.441,-0 0.801,-0.36 0.801,-0.801l0,-19.701c0,-0.441 -0.36,-0.801 -0.801,-0.801Z" style="fill:#ed1c24;fill-rule:nonzero;"/><path d="M20.502,32.479l-9.846,-0l0,-8.982c0,-0.441 0.36,-1.152 0.801,-1.593l9.045,-9.054c0.22,-0.22 0.42,-0.33 0.565,-0.33c0.146,-0 0.236,0.11 0.236,0.33l0,18.828c0,0.441 -0.36,0.801 -0.801,0.801Z" style="fill:#8b0c0e;fill-rule:nonzero;"/><path d="M57.726,50.417c0,-0.313 -0.106,-0.56 -0.32,-0.741c-0.213,-0.181 -0.49,-0.271 -0.83,-0.271l-0.883,-0l-0,2.113l0.883,-0c0.157,-0 0.305,-0.026 0.446,-0.08c0.14,-0.055 0.263,-0.13 0.368,-0.226c0.106,-0.098 0.188,-0.214 0.247,-0.349c0.059,-0.136 0.089,-0.284 0.089,-0.446Zm-0.129,-2.446c-0,-0.275 -0.095,-0.494 -0.284,-0.656c-0.189,-0.162 -0.434,-0.243 -0.737,-0.243l-0.883,-0l-0,1.871l0.859,-0c0.135,-0 0.265,-0.024 0.389,-0.073c0.124,-0.049 0.234,-0.116 0.332,-0.202c0.097,-0.087 0.175,-0.189 0.235,-0.308c0.059,-0.119 0.089,-0.248 0.089,-0.389Zm0.745,2.471c-0,0.242 -0.048,0.461 -0.146,0.656c-0.097,0.194 -0.23,0.358 -0.401,0.489c-0.17,0.132 -0.368,0.234 -0.595,0.304c-0.227,0.071 -0.467,0.106 -0.721,0.106l-1.377,-0l0,-5.403l1.474,-0c0.211,-0 0.414,0.028 0.612,0.08c0.197,0.055 0.37,0.137 0.518,0.248c0.149,0.111 0.267,0.25 0.357,0.421c0.089,0.17 0.133,0.371 0.133,0.603c0,0.146 -0.032,0.285 -0.097,0.418c-0.065,0.133 -0.146,0.251 -0.243,0.356c-0.097,0.105 -0.204,0.195 -0.32,0.267c-0.116,0.073 -0.228,0.126 -0.336,0.158c0.151,0.027 0.296,0.077 0.434,0.15c0.137,0.073 0.258,0.167 0.364,0.28c0.105,0.113 0.189,0.244 0.251,0.392c0.062,0.149 0.093,0.307 0.093,0.475Z" style="fill:#54666f;fill-rule:nonzero;"/><path d="M61.404,49.891l-0.681,0.145c-0.113,0.027 -0.235,0.068 -0.364,0.122c-0.13,0.054 -0.247,0.119 -0.352,0.194c-0.106,0.076 -0.193,0.162 -0.264,0.26c-0.07,0.097 -0.105,0.202 -0.105,0.315c-0,0.228 0.069,0.406 0.206,0.535c0.138,0.13 0.307,0.195 0.507,0.195c0.124,-0 0.244,-0.026 0.36,-0.077c0.116,-0.052 0.222,-0.117 0.316,-0.195c0.095,-0.078 0.174,-0.162 0.239,-0.252l0.138,-0.254l0,-0.988Zm0.032,2.106l0,-0.576l-0.117,0.163c-0.062,0.075 -0.145,0.151 -0.247,0.226c-0.103,0.075 -0.22,0.142 -0.353,0.198c-0.132,0.057 -0.274,0.086 -0.425,0.086c-0.356,-0 -0.649,-0.099 -0.879,-0.3c-0.229,-0.2 -0.344,-0.481 -0.344,-0.842c0,-0.173 0.05,-0.332 0.15,-0.479c0.1,-0.144 0.226,-0.271 0.381,-0.38c0.154,-0.108 0.321,-0.2 0.502,-0.275c0.181,-0.075 0.349,-0.13 0.506,-0.162l0.794,-0.179l0,-0.267c0,-0.264 -0.072,-0.487 -0.215,-0.668c-0.143,-0.181 -0.36,-0.272 -0.652,-0.272c-0.086,-0 -0.183,0.017 -0.292,0.049c-0.108,0.033 -0.21,0.069 -0.307,0.109c-0.097,0.041 -0.185,0.081 -0.263,0.121l-0.15,0.086l-0.17,-0.437l0.154,-0.081c0.081,-0.038 0.178,-0.078 0.291,-0.122c0.113,-0.043 0.239,-0.08 0.376,-0.114c0.138,-0.032 0.277,-0.048 0.418,-0.048c0.41,-0 0.738,0.115 0.984,0.344c0.245,0.23 0.368,0.566 0.368,1.009l0,2.811l-0.51,-0Z" style="fill:#54666f;fill-rule:nonzero;"/><path d="M65.591,49.113l-0.089,-0.198c-0.049,-0.09 -0.113,-0.18 -0.194,-0.272c-0.081,-0.092 -0.176,-0.173 -0.284,-0.243c-0.108,-0.069 -0.226,-0.105 -0.356,-0.105c-0.157,-0 -0.297,0.041 -0.421,0.122c-0.125,0.081 -0.231,0.193 -0.321,0.336c-0.088,0.142 -0.157,0.308 -0.206,0.498c-0.048,0.189 -0.073,0.391 -0.073,0.607c-0,0.189 0.018,0.389 0.053,0.6c0.035,0.211 0.093,0.402 0.174,0.575c0.081,0.173 0.186,0.315 0.316,0.429c0.13,0.113 0.289,0.169 0.478,0.169c0.118,-0 0.233,-0.031 0.344,-0.096c0.111,-0.065 0.206,-0.14 0.288,-0.227l0.198,-0.255l0.093,-0.19l-0,-1.75Zm0.033,2.884l-0,-0.576l-0.114,0.163c-0.059,0.075 -0.136,0.151 -0.231,0.226c-0.094,0.075 -0.2,0.142 -0.315,0.198c-0.117,0.057 -0.234,0.086 -0.353,0.086c-0.281,-0 -0.519,-0.066 -0.713,-0.199c-0.194,-0.132 -0.353,-0.305 -0.478,-0.517c-0.124,-0.214 -0.214,-0.455 -0.271,-0.721c-0.057,-0.268 -0.085,-0.534 -0.085,-0.799c-0,-0.242 0.036,-0.484 0.109,-0.725c0.073,-0.24 0.177,-0.458 0.312,-0.652c0.135,-0.194 0.298,-0.351 0.49,-0.47c0.192,-0.118 0.404,-0.178 0.636,-0.178c0.124,-0 0.242,0.027 0.353,0.082c0.11,0.053 0.209,0.117 0.295,0.189l0.215,0.219l0.117,0.175l-0,-2.244l0.559,-0l-0,5.743l-0.526,-0Z" style="fill:#54666f;fill-rule:nonzero;"/><path d="M69.556,49.235c-0.035,-0.162 -0.089,-0.314 -0.162,-0.454c-0.073,-0.14 -0.169,-0.261 -0.287,-0.361c-0.119,-0.099 -0.263,-0.15 -0.43,-0.15c-0.156,-0 -0.294,0.048 -0.413,0.143c-0.119,0.093 -0.216,0.211 -0.292,0.351c-0.075,0.141 -0.133,0.291 -0.173,0.45c-0.041,0.16 -0.061,0.306 -0.061,0.442l1.871,-0c-0,-0.118 -0.018,-0.259 -0.053,-0.421Zm-1.835,0.826c-0,0.162 0.021,0.334 0.061,0.518c0.041,0.183 0.104,0.355 0.19,0.514c0.087,0.16 0.198,0.292 0.333,0.398c0.135,0.105 0.297,0.158 0.486,0.158c0.113,-0 0.225,-0.013 0.336,-0.037c0.111,-0.025 0.213,-0.053 0.308,-0.085c0.094,-0.032 0.177,-0.065 0.247,-0.102l0.17,-0.092l0.17,0.469l-0.166,0.074c-0.078,0.032 -0.173,0.064 -0.284,0.096c-0.11,0.032 -0.234,0.062 -0.372,0.085c-0.138,0.025 -0.282,0.037 -0.434,0.037c-0.319,-0 -0.58,-0.069 -0.785,-0.207c-0.205,-0.137 -0.369,-0.316 -0.491,-0.535c-0.121,-0.219 -0.206,-0.459 -0.254,-0.721c-0.049,-0.261 -0.073,-0.519 -0.073,-0.773c-0,-0.199 0.032,-0.418 0.097,-0.656c0.064,-0.238 0.161,-0.457 0.287,-0.66c0.127,-0.203 0.284,-0.372 0.47,-0.506c0.186,-0.135 0.404,-0.203 0.652,-0.203c0.276,-0 0.507,0.065 0.697,0.195c0.189,0.129 0.341,0.294 0.457,0.494c0.117,0.199 0.2,0.418 0.251,0.656c0.052,0.238 0.078,0.464 0.078,0.68l-0,0.203l-2.431,-0Z" style="fill:#54666f;fill-rule:nonzero;"/><path d="M73.667,51.997l0,-2.731c0,-0.107 -0.018,-0.219 -0.053,-0.336c-0.035,-0.115 -0.084,-0.22 -0.149,-0.315c-0.065,-0.095 -0.148,-0.171 -0.248,-0.232c-0.099,-0.058 -0.214,-0.088 -0.343,-0.088c-0.125,-0 -0.244,0.03 -0.362,0.088c-0.115,0.061 -0.218,0.132 -0.307,0.215l-0.218,0.256l-0.094,0.211l0,2.932l-0.559,-0l0,-4.067l0.535,-0l-0,0.568l0.105,-0.15c0.06,-0.074 0.138,-0.148 0.235,-0.223c0.097,-0.076 0.208,-0.143 0.333,-0.203c0.123,-0.059 0.256,-0.089 0.396,-0.089c0.216,-0 0.405,0.04 0.567,0.118c0.162,0.078 0.296,0.182 0.401,0.311c0.105,0.13 0.185,0.278 0.239,0.442c0.054,0.165 0.081,0.331 0.081,0.498l0,2.795l-0.559,-0Z" style="fill:#54666f;fill-rule:nonzero;"/><rect x="75.449" y="49.284" width="1.701" height="0.502" style="fill:#54666f;fill-rule:nonzero;"/><path d="M82.796,51.997l-0.657,-0l-1.166,-4.666l-1.15,4.666l-0.664,-0l-1.248,-5.403l0.625,-0l0.979,4.665l1.151,-4.665l0.655,-0l1.159,4.665l0.972,-4.665l0.592,-0l-1.248,5.403Z" style="fill:#54666f;fill-rule:nonzero;"/><path d="M87.438,46.829c-0,0.102 -0.036,0.19 -0.11,0.263c-0.073,0.073 -0.163,0.11 -0.271,0.11c-0.109,-0 -0.197,-0.037 -0.267,-0.11c-0.07,-0.073 -0.105,-0.161 -0.105,-0.263c0,-0.103 0.035,-0.191 0.105,-0.264c0.07,-0.072 0.158,-0.109 0.267,-0.109c0.108,-0 0.198,0.037 0.271,0.109c0.074,0.073 0.11,0.161 0.11,0.264Zm-1.394,-0c0,0.102 -0.036,0.19 -0.11,0.263c-0.072,0.073 -0.163,0.11 -0.271,0.11c-0.108,-0 -0.197,-0.037 -0.268,-0.11c-0.07,-0.073 -0.104,-0.161 -0.104,-0.263c-0,-0.103 0.034,-0.191 0.104,-0.264c0.071,-0.072 0.16,-0.109 0.268,-0.109c0.108,-0 0.199,0.037 0.271,0.109c0.074,0.073 0.11,0.161 0.11,0.264Zm1.207,5.168l0,-0.576l-0.109,0.154c-0.057,0.076 -0.131,0.152 -0.223,0.227c-0.092,0.076 -0.198,0.144 -0.32,0.202c-0.121,0.06 -0.255,0.09 -0.401,0.09c-0.222,-0 -0.412,-0.039 -0.571,-0.117c-0.16,-0.079 -0.29,-0.182 -0.394,-0.308c-0.101,-0.127 -0.178,-0.274 -0.226,-0.442c-0.049,-0.168 -0.073,-0.34 -0.073,-0.518l0,-2.779l0.559,-0l0,2.731c0,0.123 0.016,0.244 0.045,0.359c0.029,0.117 0.074,0.219 0.133,0.309c0.06,0.089 0.138,0.162 0.235,0.218c0.097,0.057 0.216,0.084 0.357,0.084c0.13,-0 0.252,-0.033 0.365,-0.1c0.113,-0.068 0.213,-0.145 0.299,-0.232l0.207,-0.258l0.085,-0.178l-0,-2.933l0.559,-0l0,4.067l-0.527,-0Z" style="fill:#54666f;fill-rule:nonzero;"/><path d="M90.816,48.465l-0.147,-0.069l-0.17,-0.044c-0.107,-0 -0.211,0.031 -0.307,0.093c-0.097,0.061 -0.184,0.134 -0.259,0.214l-0.183,0.24l-0.085,0.174l-0,2.924l-0.558,-0l-0,-4.067l0.534,-0l0,0.568l0.085,-0.142l0.19,-0.227c0.081,-0.078 0.177,-0.147 0.288,-0.207c0.111,-0.059 0.237,-0.089 0.377,-0.089l0.231,0.041l0.174,0.081l-0.17,0.51Z" style="fill:#54666f;fill-rule:nonzero;"/><path d="M93.65,52.008l-0.162,0.037l-0.19,0.033l-0.182,0.016c-0.162,-0 -0.298,-0.025 -0.41,-0.073c-0.11,-0.049 -0.199,-0.114 -0.267,-0.198c-0.067,-0.084 -0.116,-0.18 -0.145,-0.288c-0.03,-0.109 -0.045,-0.218 -0.045,-0.332l-0,-2.811l-0.68,-0l-0,-0.462l0.68,-0l-0,-1.101l0.559,-0l0,1.101l0.802,-0l-0,0.462l-0.802,-0l0,2.754c0,0.113 0.025,0.223 0.077,0.328c0.052,0.106 0.139,0.157 0.263,0.157c0.076,-0 0.16,-0.013 0.252,-0.044c0.091,-0.029 0.153,-0.055 0.185,-0.077l0.17,0.462l-0.105,0.036Z" style="fill:#54666f;fill-rule:nonzero;"/><path d="M96.412,52.008l-0.161,0.037l-0.191,0.033l-0.182,0.016c-0.162,-0 -0.299,-0.025 -0.409,-0.073c-0.11,-0.049 -0.2,-0.114 -0.268,-0.198c-0.067,-0.084 -0.116,-0.18 -0.145,-0.288c-0.029,-0.109 -0.045,-0.218 -0.045,-0.332l-0,-2.811l-0.68,-0l-0,-0.462l0.68,-0l-0,-1.101l0.559,-0l0,1.101l0.802,-0l-0,0.462l-0.802,-0l0,2.754c0,0.113 0.026,0.223 0.078,0.328c0.05,0.106 0.138,0.157 0.262,0.157c0.076,-0 0.16,-0.013 0.251,-0.044c0.092,-0.029 0.155,-0.055 0.187,-0.077l0.17,0.462l-0.106,0.036Z" style="fill:#54666f;fill-rule:nonzero;"/><path d="M99.665,49.235c-0.035,-0.162 -0.09,-0.314 -0.162,-0.454c-0.073,-0.14 -0.17,-0.261 -0.288,-0.361c-0.119,-0.099 -0.263,-0.15 -0.429,-0.15c-0.157,-0 -0.295,0.048 -0.414,0.143c-0.119,0.093 -0.216,0.211 -0.291,0.351c-0.076,0.141 -0.134,0.291 -0.174,0.45c-0.041,0.16 -0.061,0.306 -0.061,0.442l1.871,-0c-0,-0.118 -0.018,-0.259 -0.052,-0.421Zm-1.836,0.826c-0,0.162 0.022,0.334 0.062,0.518c0.04,0.183 0.103,0.355 0.19,0.514c0.086,0.16 0.197,0.292 0.332,0.398c0.135,0.105 0.297,0.158 0.487,0.158c0.113,-0 0.224,-0.013 0.336,-0.037c0.11,-0.025 0.212,-0.053 0.307,-0.085c0.095,-0.032 0.177,-0.065 0.247,-0.102l0.17,-0.092l0.17,0.469l-0.166,0.074c-0.078,0.032 -0.173,0.064 -0.283,0.096c-0.111,0.032 -0.235,0.062 -0.373,0.085c-0.137,0.025 -0.281,0.037 -0.434,0.037c-0.318,-0 -0.58,-0.069 -0.785,-0.207c-0.205,-0.137 -0.369,-0.316 -0.49,-0.535c-0.121,-0.219 -0.207,-0.459 -0.255,-0.721c-0.049,-0.261 -0.073,-0.519 -0.073,-0.773c-0,-0.199 0.033,-0.418 0.097,-0.656c0.065,-0.238 0.16,-0.457 0.287,-0.66c0.127,-0.203 0.284,-0.372 0.471,-0.506c0.186,-0.135 0.402,-0.203 0.652,-0.203c0.275,-0 0.506,0.065 0.696,0.195c0.189,0.129 0.342,0.294 0.458,0.494c0.116,0.199 0.2,0.418 0.251,0.656c0.051,0.238 0.077,0.464 0.077,0.68l-0,0.203l-2.431,-0Z" style="fill:#54666f;fill-rule:nonzero;"/><path d="M105.865,51.997l0,-2.731c0,-0.118 -0.013,-0.235 -0.04,-0.351c-0.027,-0.117 -0.069,-0.221 -0.126,-0.313c-0.057,-0.092 -0.133,-0.166 -0.231,-0.223c-0.097,-0.056 -0.213,-0.084 -0.348,-0.084c-0.14,-0 -0.265,0.026 -0.377,0.077c-0.111,0.051 -0.205,0.113 -0.283,0.186l-0.19,0.232l-0.081,0.21l-0,2.997l-0.559,-0l0,-2.731c0,-0.118 -0.013,-0.235 -0.037,-0.351c-0.023,-0.117 -0.065,-0.221 -0.121,-0.313c-0.057,-0.092 -0.133,-0.166 -0.227,-0.223c-0.095,-0.056 -0.215,-0.084 -0.361,-0.084c-0.129,-0 -0.25,0.03 -0.359,0.088c-0.112,0.061 -0.207,0.132 -0.289,0.215l-0.194,0.256l-0.09,0.211l-0,2.932l-0.558,-0l0,-4.067l0.535,-0l-0,0.568l0.101,-0.142l0.202,-0.227c0.084,-0.078 0.187,-0.147 0.308,-0.207c0.121,-0.059 0.258,-0.089 0.409,-0.089c0.201,-0 0.367,0.027 0.498,0.082c0.132,0.053 0.242,0.117 0.329,0.189l0.194,0.219l0.098,0.175l0.109,-0.15c0.057,-0.074 0.132,-0.148 0.226,-0.223c0.094,-0.076 0.208,-0.143 0.34,-0.203c0.133,-0.059 0.28,-0.089 0.442,-0.089c0.232,-0 0.427,0.04 0.588,0.118c0.158,0.078 0.287,0.182 0.384,0.311c0.097,0.13 0.166,0.278 0.206,0.442c0.04,0.165 0.061,0.331 0.061,0.498l-0,2.795l-0.559,-0Z" style="fill:#54666f;fill-rule:nonzero;"/><path d="M110.304,49.858c-0,-0.178 -0.02,-0.36 -0.061,-0.547c-0.041,-0.185 -0.102,-0.354 -0.186,-0.506c-0.083,-0.151 -0.189,-0.273 -0.316,-0.369c-0.127,-0.094 -0.279,-0.141 -0.458,-0.141c-0.108,-0 -0.213,0.032 -0.319,0.097c-0.105,0.066 -0.201,0.14 -0.288,0.223l-0.219,0.255l-0.096,0.195l-0,2.47l0.125,0.032l0.203,0.029l0.222,0.024l0.194,0.011c0.189,-0 0.358,-0.056 0.506,-0.169c0.149,-0.114 0.275,-0.256 0.376,-0.429c0.104,-0.173 0.182,-0.364 0.237,-0.575c0.053,-0.211 0.08,-0.411 0.08,-0.6Zm0.584,-0c-0,0.265 -0.039,0.529 -0.113,0.794c-0.077,0.265 -0.19,0.504 -0.341,0.717c-0.152,0.214 -0.337,0.387 -0.56,0.522c-0.221,0.135 -0.477,0.203 -0.769,0.203c-0.08,-0 -0.185,-0.007 -0.311,-0.02c-0.127,-0.014 -0.256,-0.031 -0.385,-0.053c-0.131,-0.022 -0.252,-0.044 -0.365,-0.065c-0.113,-0.022 -0.194,-0.037 -0.243,-0.048l-0,-5.654l0.56,-0l-0,2.244l0.109,-0.159l0.219,-0.222c0.088,-0.075 0.189,-0.142 0.302,-0.198c0.114,-0.057 0.233,-0.086 0.358,-0.086c0.275,-0 0.51,0.064 0.704,0.191c0.194,0.127 0.353,0.287 0.477,0.481c0.125,0.195 0.215,0.413 0.272,0.653c0.057,0.24 0.086,0.473 0.086,0.7Z" style="fill:#54666f;fill-rule:nonzero;"/><path d="M114.123,49.235c-0.035,-0.162 -0.089,-0.314 -0.162,-0.454c-0.073,-0.14 -0.169,-0.261 -0.288,-0.361c-0.119,-0.099 -0.262,-0.15 -0.429,-0.15c-0.157,-0 -0.294,0.048 -0.413,0.143c-0.119,0.093 -0.217,0.211 -0.292,0.351c-0.075,0.141 -0.134,0.291 -0.174,0.45c-0.04,0.16 -0.061,0.306 -0.061,0.442l1.871,-0c-0,-0.118 -0.018,-0.259 -0.052,-0.421Zm-1.835,0.826c-0,0.162 0.021,0.334 0.061,0.518c0.041,0.183 0.103,0.355 0.19,0.514c0.087,0.16 0.197,0.292 0.333,0.398c0.135,0.105 0.297,0.158 0.486,0.158c0.113,-0 0.225,-0.013 0.336,-0.037c0.11,-0.025 0.213,-0.053 0.307,-0.085c0.095,-0.032 0.178,-0.065 0.248,-0.102l0.17,-0.092l0.17,0.469l-0.166,0.074c-0.078,0.032 -0.174,0.064 -0.283,0.096c-0.112,0.032 -0.236,0.062 -0.373,0.085c-0.138,0.025 -0.282,0.037 -0.434,0.037c-0.318,-0 -0.58,-0.069 -0.785,-0.207c-0.205,-0.137 -0.369,-0.316 -0.49,-0.535c-0.121,-0.219 -0.207,-0.459 -0.256,-0.721c-0.049,-0.261 -0.072,-0.519 -0.072,-0.773c-0,-0.199 0.032,-0.418 0.097,-0.656c0.065,-0.238 0.16,-0.457 0.287,-0.66c0.127,-0.203 0.284,-0.372 0.47,-0.506c0.187,-0.135 0.403,-0.203 0.652,-0.203c0.275,-0 0.507,0.065 0.697,0.195c0.189,0.129 0.342,0.294 0.456,0.494c0.118,0.199 0.2,0.418 0.252,0.656c0.052,0.238 0.077,0.464 0.077,0.68l-0,0.203l-2.43,-0Z" style="fill:#54666f;fill-rule:nonzero;"/><path d="M117.562,48.465l-0.146,-0.069l-0.17,-0.044c-0.108,-0 -0.211,0.031 -0.307,0.093c-0.098,0.061 -0.184,0.134 -0.26,0.214l-0.182,0.24l-0.086,0.174l0,2.924l-0.559,-0l0,-4.067l0.536,-0l-0,0.568l0.084,-0.142l0.191,-0.227c0.079,-0.078 0.176,-0.147 0.286,-0.207c0.112,-0.059 0.237,-0.089 0.378,-0.089l0.231,0.041l0.174,0.081l-0.17,0.51Z" style="fill:#54666f;fill-rule:nonzero;"/><path d="M120.608,49.235c-0,-0.297 -0.075,-0.536 -0.223,-0.717c-0.149,-0.181 -0.353,-0.271 -0.612,-0.271c-0.129,-0 -0.246,0.027 -0.352,0.08c-0.105,0.054 -0.193,0.127 -0.264,0.218c-0.07,0.092 -0.124,0.198 -0.162,0.317c-0.037,0.119 -0.056,0.243 -0.056,0.373c0,0.145 0.015,0.285 0.045,0.416c0.029,0.133 0.077,0.248 0.141,0.345c0.066,0.097 0.15,0.174 0.255,0.231c0.106,0.057 0.236,0.084 0.393,0.084c0.152,-0 0.28,-0.033 0.384,-0.1c0.106,-0.068 0.193,-0.153 0.26,-0.255c0.068,-0.103 0.116,-0.218 0.147,-0.344c0.029,-0.127 0.044,-0.253 0.044,-0.377Zm0.292,3.426c0,-0.211 -0.108,-0.385 -0.321,-0.523c-0.213,-0.137 -0.482,-0.206 -0.806,-0.206c-0.135,-0 -0.266,0.019 -0.393,0.057c-0.127,0.037 -0.238,0.089 -0.336,0.154c-0.098,0.065 -0.176,0.141 -0.234,0.231c-0.061,0.088 -0.09,0.184 -0.09,0.287c-0,0.102 0.025,0.201 0.077,0.296c0.052,0.094 0.123,0.178 0.215,0.251c0.092,0.072 0.202,0.13 0.332,0.173c0.13,0.043 0.272,0.065 0.429,0.065c0.162,-0 0.31,-0.023 0.446,-0.068c0.135,-0.046 0.254,-0.106 0.356,-0.178c0.103,-0.073 0.182,-0.156 0.239,-0.252c0.056,-0.094 0.086,-0.19 0.086,-0.287Zm-0.057,-4.334l0.089,0.122l0.109,0.198c0.034,0.078 0.066,0.168 0.093,0.268c0.027,0.099 0.041,0.207 0.041,0.32c-0,0.205 -0.035,0.398 -0.105,0.578c-0.071,0.182 -0.168,0.34 -0.292,0.475c-0.125,0.134 -0.273,0.242 -0.446,0.32c-0.173,0.078 -0.359,0.117 -0.559,0.117l-0.19,0.032l-0.19,0.081l-0.15,0.118l-0.061,0.142c0,0.118 0.055,0.215 0.166,0.291c0.11,0.076 0.253,0.114 0.425,0.114c0.222,-0 0.435,0.025 0.64,0.077c0.205,0.051 0.387,0.127 0.543,0.226c0.156,0.101 0.28,0.222 0.373,0.364c0.091,0.144 0.137,0.307 0.137,0.491c-0,0.14 -0.04,0.281 -0.121,0.422c-0.081,0.139 -0.195,0.269 -0.344,0.388c-0.149,0.118 -0.328,0.215 -0.535,0.287c-0.208,0.073 -0.439,0.11 -0.693,0.11c-0.227,-0 -0.438,-0.03 -0.635,-0.089c-0.197,-0.06 -0.366,-0.14 -0.507,-0.239c-0.14,-0.1 -0.251,-0.219 -0.332,-0.357c-0.081,-0.138 -0.122,-0.288 -0.122,-0.449c-0,-0.157 0.043,-0.296 0.127,-0.417c0.083,-0.122 0.182,-0.223 0.295,-0.305c0.113,-0.08 0.229,-0.144 0.347,-0.189c0.12,-0.046 0.217,-0.072 0.293,-0.077l-0.154,-0.045l-0.19,-0.101l-0.162,-0.17c-0.046,-0.07 -0.07,-0.154 -0.07,-0.252l0.065,-0.189l0.154,-0.166l0.183,-0.122l0.157,-0.066c-0.075,-0.026 -0.161,-0.07 -0.258,-0.132c-0.098,-0.063 -0.191,-0.149 -0.28,-0.26c-0.089,-0.111 -0.163,-0.248 -0.223,-0.413c-0.059,-0.165 -0.089,-0.363 -0.089,-0.595c0,-0.174 0.036,-0.344 0.11,-0.511c0.072,-0.167 0.171,-0.317 0.298,-0.45c0.127,-0.132 0.276,-0.238 0.447,-0.319c0.17,-0.081 0.352,-0.122 0.546,-0.122c0.125,-0 0.242,0.012 0.353,0.037c0.11,0.024 0.19,0.045 0.238,0.06l1.151,-0l-0,0.397l-0.672,-0Z" style="fill:#54666f;fill-rule:nonzero;"/><path d="M58.123,40.282c-0,-0.328 -0.048,-0.623 -0.145,-0.883c-0.097,-0.259 -0.227,-0.479 -0.389,-0.66c-0.162,-0.181 -0.35,-0.319 -0.563,-0.417c-0.214,-0.097 -0.436,-0.146 -0.668,-0.146l-0.665,-0l-0,4.448l0.689,-0c0.243,-0 0.471,-0.061 0.684,-0.183c0.213,-0.122 0.399,-0.288 0.555,-0.498c0.157,-0.211 0.28,-0.458 0.368,-0.741c0.09,-0.283 0.134,-0.59 0.134,-0.92Zm0.608,-0c-0,0.394 -0.059,0.763 -0.179,1.105c-0.118,0.344 -0.282,0.643 -0.489,0.897c-0.208,0.253 -0.455,0.453 -0.742,0.598c-0.286,0.146 -0.596,0.219 -0.931,0.219l-1.288,-0l0,-5.403l1.175,-0c0.345,-0 0.668,0.06 0.967,0.179c0.3,0.118 0.561,0.289 0.782,0.51c0.221,0.221 0.394,0.492 0.519,0.81c0.124,0.319 0.186,0.681 0.186,1.085Z" style="fill:#54666f;fill-rule:nonzero;"/><path d="M62.011,43.101l-0,-0.575l-0.109,0.154c-0.057,0.075 -0.131,0.151 -0.223,0.227c-0.091,0.076 -0.198,0.142 -0.319,0.203c-0.122,0.059 -0.256,0.088 -0.401,0.088c-0.222,-0 -0.412,-0.039 -0.572,-0.117c-0.159,-0.078 -0.29,-0.181 -0.393,-0.308c-0.102,-0.127 -0.178,-0.274 -0.226,-0.441c-0.049,-0.167 -0.073,-0.341 -0.073,-0.519l0,-2.778l0.559,-0l0,2.729c0,0.125 0.015,0.244 0.045,0.362c0.029,0.115 0.073,0.218 0.133,0.306c0.059,0.09 0.138,0.162 0.235,0.219c0.097,0.057 0.216,0.086 0.356,0.086c0.13,-0 0.252,-0.033 0.365,-0.102c0.113,-0.067 0.213,-0.144 0.3,-0.23l0.206,-0.26l0.085,-0.178l0,-2.932l0.559,-0l-0,4.066l-0.527,-0Z" style="fill:#54666f;fill-rule:nonzero;"/><path d="M65.965,40.995l-0.681,0.146c-0.113,0.028 -0.235,0.068 -0.364,0.121c-0.13,0.055 -0.247,0.119 -0.353,0.195c-0.105,0.075 -0.193,0.162 -0.263,0.258c-0.07,0.098 -0.106,0.204 -0.106,0.317c0,0.226 0.069,0.405 0.207,0.535c0.138,0.129 0.307,0.193 0.506,0.193c0.124,-0 0.244,-0.025 0.361,-0.076c0.116,-0.051 0.221,-0.116 0.316,-0.194c0.094,-0.079 0.174,-0.162 0.239,-0.251l0.138,-0.256l0,-0.988Zm0.032,2.106l-0,-0.575l-0.117,0.162c-0.063,0.076 -0.145,0.151 -0.247,0.227c-0.104,0.076 -0.221,0.142 -0.353,0.199c-0.132,0.056 -0.274,0.084 -0.425,0.084c-0.357,-0 -0.65,-0.1 -0.879,-0.299c-0.23,-0.2 -0.344,-0.48 -0.344,-0.843c-0,-0.173 0.049,-0.332 0.149,-0.477c0.1,-0.147 0.227,-0.274 0.381,-0.381c0.154,-0.109 0.321,-0.199 0.502,-0.276c0.181,-0.076 0.35,-0.129 0.507,-0.162l0.794,-0.177l0,-0.268c0,-0.265 -0.072,-0.488 -0.215,-0.668c-0.143,-0.182 -0.361,-0.271 -0.652,-0.271c-0.087,-0 -0.184,0.015 -0.292,0.048c-0.108,0.032 -0.211,0.069 -0.308,0.11c-0.097,0.039 -0.185,0.08 -0.263,0.121l-0.15,0.085l-0.17,-0.438l0.154,-0.081c0.081,-0.037 0.178,-0.078 0.292,-0.121c0.113,-0.043 0.238,-0.082 0.376,-0.113c0.138,-0.033 0.277,-0.049 0.417,-0.049c0.411,-0 0.739,0.114 0.984,0.344c0.246,0.229 0.369,0.566 0.369,1.009l-0,2.81l-0.51,-0Z" style="fill:#54666f;fill-rule:nonzero;"/><path d="M69.002,43.158c-0.097,0.026 -0.186,0.04 -0.267,0.04c-0.163,-0 -0.295,-0.027 -0.397,-0.08c-0.103,-0.055 -0.185,-0.126 -0.247,-0.215c-0.062,-0.09 -0.105,-0.193 -0.13,-0.313c-0.024,-0.118 -0.036,-0.242 -0.036,-0.372l-0,-4.86l0.559,-0l-0,4.812c-0,0.167 0.021,0.302 0.065,0.405c0.043,0.102 0.115,0.154 0.218,0.154l0.146,-0.041l0.121,-0.081l0.17,0.47c-0.037,0.027 -0.105,0.054 -0.202,0.081Z" style="fill:#54666f;fill-rule:nonzero;"/><path d="M72.295,40.338c-0.036,-0.162 -0.09,-0.312 -0.162,-0.453c-0.073,-0.14 -0.169,-0.259 -0.288,-0.36c-0.119,-0.101 -0.262,-0.149 -0.429,-0.149c-0.157,-0 -0.295,0.046 -0.413,0.14c-0.119,0.096 -0.217,0.213 -0.292,0.354c-0.076,0.14 -0.134,0.29 -0.174,0.449c-0.041,0.159 -0.061,0.307 -0.061,0.441l1.87,-0c-0,-0.119 -0.017,-0.259 -0.051,-0.422Zm-1.835,0.827c0,0.162 0.02,0.336 0.061,0.519c0.04,0.184 0.103,0.355 0.19,0.514c0.086,0.16 0.197,0.292 0.332,0.396c0.135,0.106 0.297,0.159 0.486,0.159c0.113,-0 0.226,-0.012 0.336,-0.037c0.111,-0.024 0.213,-0.052 0.308,-0.085c0.094,-0.033 0.177,-0.066 0.248,-0.101l0.17,-0.093l0.169,0.47l-0.166,0.072c-0.078,0.033 -0.173,0.066 -0.283,0.098c-0.111,0.033 -0.235,0.06 -0.373,0.085c-0.138,0.024 -0.282,0.036 -0.433,0.036c-0.319,-0 -0.581,-0.069 -0.786,-0.206c-0.205,-0.138 -0.369,-0.316 -0.49,-0.534c-0.121,-0.219 -0.207,-0.459 -0.255,-0.721c-0.049,-0.263 -0.073,-0.521 -0.073,-0.775c-0,-0.2 0.032,-0.417 0.097,-0.655c0.065,-0.238 0.161,-0.459 0.287,-0.66c0.127,-0.203 0.284,-0.371 0.471,-0.507c0.186,-0.135 0.403,-0.202 0.651,-0.202c0.276,-0 0.508,0.065 0.697,0.193c0.19,0.131 0.342,0.295 0.457,0.495c0.117,0.201 0.2,0.419 0.252,0.656c0.051,0.238 0.076,0.465 0.076,0.68l0,0.203l-2.429,-0Z" style="fill:#54666f;fill-rule:nonzero;"/><path d="M79.272,43.101l-0,-2.575l-2.226,-0l0,2.575l-0.592,-0l-0,-5.403l0.592,-0l0,2.342l2.226,-0l-0,-2.342l0.592,-0l0,5.403l-0.592,-0Z" style="fill:#54666f;fill-rule:nonzero;"/><path d="M83.768,40.962c0,-0.134 -0.015,-0.292 -0.049,-0.469c-0.032,-0.178 -0.088,-0.348 -0.169,-0.51c-0.081,-0.162 -0.186,-0.301 -0.317,-0.414c-0.129,-0.113 -0.291,-0.17 -0.485,-0.17c-0.189,-0 -0.349,0.055 -0.478,0.162c-0.13,0.109 -0.235,0.242 -0.316,0.401c-0.08,0.16 -0.139,0.33 -0.174,0.511c-0.035,0.181 -0.053,0.344 -0.053,0.489c0,0.163 0.015,0.346 0.045,0.552c0.029,0.205 0.082,0.398 0.158,0.578c0.075,0.182 0.179,0.334 0.311,0.458c0.133,0.124 0.302,0.187 0.507,0.187c0.2,-0 0.366,-0.063 0.498,-0.187c0.132,-0.124 0.237,-0.276 0.315,-0.458c0.079,-0.18 0.133,-0.373 0.162,-0.578c0.031,-0.206 0.045,-0.389 0.045,-0.552Zm0.584,-0c0,0.222 -0.029,0.464 -0.086,0.726c-0.056,0.262 -0.146,0.504 -0.271,0.729c-0.124,0.224 -0.289,0.41 -0.494,0.558c-0.205,0.149 -0.456,0.223 -0.753,0.223c-0.308,-0 -0.566,-0.074 -0.774,-0.223c-0.208,-0.148 -0.372,-0.333 -0.494,-0.555c-0.122,-0.22 -0.208,-0.462 -0.259,-0.724c-0.051,-0.262 -0.077,-0.506 -0.077,-0.734c0,-0.182 0.03,-0.391 0.089,-0.624c0.06,-0.231 0.154,-0.451 0.283,-0.66c0.13,-0.207 0.296,-0.383 0.498,-0.525c0.203,-0.144 0.448,-0.215 0.734,-0.215c0.302,-0 0.555,0.07 0.761,0.211c0.206,0.14 0.371,0.313 0.494,0.518c0.125,0.205 0.214,0.425 0.267,0.66c0.055,0.234 0.082,0.447 0.082,0.635Z" style="fill:#54666f;fill-rule:nonzero;"/><path d="M87.88,42.979c-0.068,0.033 -0.152,0.066 -0.252,0.098c-0.1,0.033 -0.211,0.06 -0.336,0.085c-0.124,0.024 -0.254,0.036 -0.389,0.036c-0.291,-0 -0.539,-0.065 -0.741,-0.194c-0.202,-0.129 -0.366,-0.3 -0.49,-0.51c-0.124,-0.21 -0.214,-0.45 -0.271,-0.717c-0.057,-0.268 -0.086,-0.538 -0.086,-0.815c-0,-0.226 0.038,-0.459 0.113,-0.7c0.077,-0.24 0.183,-0.458 0.321,-0.652c0.137,-0.194 0.304,-0.356 0.502,-0.482c0.197,-0.127 0.42,-0.19 0.668,-0.19c0.119,-0 0.235,0.011 0.349,0.032c0.114,0.022 0.215,0.048 0.303,0.077l0.227,0.089l0.118,0.07l-0.171,0.468l-0.113,-0.068l-0.21,-0.094l-0.255,-0.08l-0.248,-0.033c-0.162,-0 -0.307,0.049 -0.433,0.146c-0.126,0.097 -0.233,0.223 -0.32,0.377c-0.087,0.154 -0.153,0.323 -0.199,0.506c-0.045,0.184 -0.068,0.362 -0.068,0.534c-0,0.211 0.019,0.423 0.057,0.636c0.037,0.214 0.097,0.405 0.181,0.572c0.084,0.167 0.192,0.303 0.325,0.409c0.133,0.105 0.29,0.158 0.474,0.158c0.087,-0 0.175,-0.012 0.267,-0.033c0.092,-0.022 0.179,-0.048 0.263,-0.08l0.227,-0.102l0.15,-0.094l0.17,0.479l-0.133,0.072Z" style="fill:#54666f;fill-rule:nonzero;"/><path d="M91.383,43.101l-0,-2.729c-0,-0.109 -0.018,-0.221 -0.053,-0.336c-0.035,-0.117 -0.085,-0.222 -0.149,-0.317c-0.065,-0.093 -0.148,-0.172 -0.248,-0.23c-0.1,-0.06 -0.214,-0.09 -0.344,-0.09c-0.129,-0 -0.252,0.031 -0.368,0.094c-0.116,0.062 -0.219,0.135 -0.308,0.219l-0.215,0.254l-0.089,0.203l-0,2.932l-0.559,-0l-0,-5.743l0.559,-0l-0,2.244l0.101,-0.158c0.057,-0.072 0.133,-0.147 0.227,-0.223c0.094,-0.076 0.203,-0.141 0.324,-0.199c0.121,-0.057 0.252,-0.084 0.392,-0.084c0.217,-0 0.407,0.039 0.568,0.117c0.162,0.078 0.296,0.182 0.401,0.312c0.106,0.13 0.185,0.276 0.239,0.442c0.054,0.164 0.082,0.33 0.082,0.498l-0,2.794l-0.56,-0Z" style="fill:#54666f;fill-rule:nonzero;"/><path d="M95.627,41.991c0,0.174 -0.035,0.334 -0.104,0.482c-0.071,0.149 -0.166,0.278 -0.288,0.385c-0.123,0.108 -0.265,0.191 -0.429,0.252c-0.166,0.059 -0.34,0.088 -0.524,0.088c-0.162,-0 -0.311,-0.01 -0.449,-0.031c-0.138,-0.023 -0.261,-0.049 -0.369,-0.082c-0.107,-0.033 -0.201,-0.065 -0.279,-0.097l-0.182,-0.081l0.17,-0.453l0.162,0.076c0.08,0.035 0.174,0.068 0.279,0.101c0.106,0.033 0.217,0.063 0.336,0.089c0.12,0.028 0.227,0.04 0.325,0.04c0.205,-0 0.384,-0.058 0.539,-0.177c0.153,-0.12 0.23,-0.284 0.23,-0.495c0,-0.119 -0.047,-0.224 -0.141,-0.32c-0.095,-0.094 -0.214,-0.185 -0.357,-0.275c-0.143,-0.088 -0.299,-0.178 -0.466,-0.267c-0.167,-0.089 -0.323,-0.184 -0.466,-0.288c-0.142,-0.101 -0.261,-0.215 -0.356,-0.34c-0.095,-0.124 -0.142,-0.269 -0.142,-0.437c0,-0.178 0.036,-0.343 0.106,-0.494c0.07,-0.151 0.166,-0.282 0.287,-0.389c0.121,-0.108 0.261,-0.191 0.418,-0.251c0.156,-0.06 0.323,-0.089 0.502,-0.089c0.107,-0 0.217,0.011 0.328,0.032c0.11,0.022 0.211,0.046 0.303,0.074c0.092,0.026 0.17,0.054 0.235,0.084l0.138,0.078l-0.17,0.445l-0.125,-0.082l-0.215,-0.093l-0.256,-0.077l-0.246,-0.032c-0.206,-0 -0.381,0.063 -0.527,0.19c-0.146,0.127 -0.219,0.296 -0.219,0.506c-0,0.119 0.049,0.231 0.146,0.332c0.097,0.104 0.217,0.201 0.36,0.292c0.143,0.093 0.301,0.183 0.471,0.272c0.169,0.088 0.326,0.184 0.468,0.288c0.144,0.101 0.264,0.215 0.362,0.336c0.097,0.121 0.145,0.257 0.145,0.408Z" style="fill:#54666f;fill-rule:nonzero;"/><path d="M99.107,42.979c-0.068,0.033 -0.152,0.066 -0.251,0.098c-0.101,0.033 -0.212,0.06 -0.337,0.085c-0.123,0.024 -0.254,0.036 -0.389,0.036c-0.291,-0 -0.538,-0.065 -0.74,-0.194c-0.203,-0.129 -0.366,-0.3 -0.49,-0.51c-0.125,-0.21 -0.215,-0.45 -0.272,-0.717c-0.057,-0.268 -0.085,-0.538 -0.085,-0.815c0,-0.226 0.038,-0.459 0.113,-0.7c0.076,-0.24 0.183,-0.458 0.32,-0.652c0.138,-0.194 0.305,-0.356 0.503,-0.482c0.196,-0.127 0.419,-0.19 0.668,-0.19c0.118,-0 0.235,0.011 0.348,0.032c0.114,0.022 0.215,0.048 0.304,0.077l0.227,0.089l0.118,0.07l-0.171,0.468l-0.113,-0.068l-0.21,-0.094l-0.256,-0.08l-0.247,-0.033c-0.162,-0 -0.307,0.049 -0.433,0.146c-0.127,0.097 -0.234,0.223 -0.32,0.377c-0.087,0.154 -0.153,0.323 -0.199,0.506c-0.045,0.184 -0.069,0.362 -0.069,0.534c0,0.211 0.02,0.423 0.057,0.636c0.037,0.214 0.098,0.405 0.181,0.572c0.084,0.167 0.193,0.303 0.325,0.409c0.132,0.105 0.291,0.158 0.474,0.158c0.086,-0 0.176,-0.012 0.268,-0.033c0.092,-0.022 0.179,-0.048 0.263,-0.08l0.226,-0.102l0.15,-0.094l0.17,0.479l-0.133,0.072Z" style="fill:#54666f;fill-rule:nonzero;"/><path d="M102.611,43.101l-0,-2.729c-0,-0.109 -0.018,-0.221 -0.053,-0.336c-0.035,-0.117 -0.086,-0.222 -0.151,-0.317c-0.064,-0.093 -0.146,-0.172 -0.247,-0.23c-0.099,-0.06 -0.214,-0.09 -0.344,-0.09c-0.129,-0 -0.252,0.031 -0.368,0.094c-0.117,0.062 -0.218,0.135 -0.308,0.219l-0.215,0.254l-0.089,0.203l0,2.932l-0.559,-0l-0,-5.743l0.559,-0l0,2.244l0.101,-0.158c0.057,-0.072 0.133,-0.147 0.227,-0.223c0.095,-0.076 0.202,-0.141 0.323,-0.199c0.123,-0.057 0.253,-0.084 0.394,-0.084c0.216,-0 0.405,0.039 0.567,0.117c0.163,0.078 0.295,0.182 0.401,0.312c0.105,0.13 0.185,0.276 0.239,0.442c0.054,0.164 0.081,0.33 0.081,0.498l0,2.794l-0.558,-0Z" style="fill:#54666f;fill-rule:nonzero;"/><path d="M106.838,43.101l0,-0.575l-0.109,0.154c-0.057,0.075 -0.131,0.151 -0.223,0.227c-0.092,0.076 -0.198,0.142 -0.319,0.203c-0.122,0.059 -0.256,0.088 -0.402,0.088c-0.221,-0 -0.412,-0.039 -0.571,-0.117c-0.159,-0.078 -0.291,-0.181 -0.393,-0.308c-0.103,-0.127 -0.178,-0.274 -0.226,-0.441c-0.049,-0.167 -0.073,-0.341 -0.073,-0.519l-0,-2.778l0.558,-0l-0,2.729c-0,0.125 0.015,0.244 0.045,0.362c0.029,0.115 0.073,0.218 0.134,0.306c0.059,0.09 0.137,0.162 0.234,0.219c0.098,0.057 0.217,0.086 0.357,0.086c0.13,-0 0.251,-0.033 0.364,-0.102c0.113,-0.067 0.214,-0.144 0.301,-0.23l0.206,-0.26l0.085,-0.178l0,-2.932l0.558,-0l0,4.066l-0.526,-0Z" style="fill:#54666f;fill-rule:nonzero;"/><path d="M109.827,43.158c-0.097,0.026 -0.186,0.04 -0.267,0.04c-0.162,-0 -0.295,-0.027 -0.397,-0.08c-0.103,-0.055 -0.185,-0.126 -0.248,-0.215c-0.061,-0.09 -0.104,-0.193 -0.129,-0.313c-0.024,-0.118 -0.037,-0.242 -0.037,-0.372l-0,-4.86l0.56,-0l0,4.812c0,0.167 0.021,0.302 0.065,0.405c0.043,0.102 0.115,0.154 0.219,0.154l0.144,-0.041l0.123,-0.081l0.169,0.47c-0.038,0.027 -0.104,0.054 -0.202,0.081Z" style="fill:#54666f;fill-rule:nonzero;"/><path d="M113.071,40.338c-0.035,-0.162 -0.089,-0.312 -0.162,-0.453c-0.072,-0.14 -0.169,-0.259 -0.287,-0.36c-0.119,-0.101 -0.262,-0.149 -0.429,-0.149c-0.157,-0 -0.295,0.046 -0.414,0.14c-0.119,0.096 -0.215,0.213 -0.292,0.354c-0.076,0.14 -0.132,0.29 -0.173,0.449c-0.041,0.159 -0.061,0.307 -0.061,0.441l1.871,-0c-0,-0.119 -0.017,-0.259 -0.053,-0.422Zm-1.835,0.827c-0,0.162 0.021,0.336 0.062,0.519c0.04,0.184 0.104,0.355 0.189,0.514c0.086,0.16 0.198,0.292 0.333,0.396c0.134,0.106 0.296,0.159 0.486,0.159c0.113,-0 0.225,-0.012 0.336,-0.037c0.111,-0.024 0.213,-0.052 0.308,-0.085c0.094,-0.033 0.176,-0.066 0.246,-0.101l0.17,-0.093l0.17,0.47l-0.166,0.072c-0.078,0.033 -0.172,0.066 -0.283,0.098c-0.11,0.033 -0.234,0.06 -0.372,0.085c-0.138,0.024 -0.282,0.036 -0.434,0.036c-0.319,-0 -0.581,-0.069 -0.786,-0.206c-0.205,-0.138 -0.368,-0.316 -0.49,-0.534c-0.121,-0.219 -0.206,-0.459 -0.254,-0.721c-0.049,-0.263 -0.073,-0.521 -0.073,-0.775c-0,-0.2 0.032,-0.417 0.097,-0.655c0.064,-0.238 0.161,-0.459 0.287,-0.66c0.127,-0.203 0.284,-0.371 0.47,-0.507c0.186,-0.135 0.404,-0.202 0.653,-0.202c0.275,-0 0.507,0.065 0.696,0.193c0.189,0.131 0.341,0.295 0.458,0.495c0.115,0.201 0.199,0.419 0.25,0.656c0.052,0.238 0.078,0.465 0.078,0.68l0,0.203l-2.431,-0Z" style="fill:#54666f;fill-rule:nonzero;"/><path d="M66.956,21.372c-0,-1.023 -0.128,-1.977 -0.383,-2.861c-0.257,-0.884 -0.636,-1.649 -1.137,-2.287c-0.499,-0.639 -1.103,-1.145 -1.806,-1.519c-0.705,-0.372 -1.503,-0.559 -2.399,-0.559l-2.398,-0l-0,15.378l2.207,-0c0.893,-0 1.703,-0.202 2.429,-0.607c0.726,-0.406 1.349,-0.97 1.872,-1.695c0.521,-0.724 0.921,-1.584 1.199,-2.572c0.277,-0.993 0.416,-2.085 0.416,-3.278Zm3.873,-0c-0,1.596 -0.229,3.076 -0.686,4.437c-0.458,1.362 -1.103,2.538 -1.934,3.529c-0.829,0.99 -1.841,1.76 -3.036,2.314c-1.193,0.554 -2.525,0.829 -3.994,0.829l-5.337,-0c-0.234,-0 -0.421,-0.073 -0.558,-0.221c-0.139,-0.15 -0.208,-0.341 -0.208,-0.575l0,-19.699c0,-0.235 0.069,-0.426 0.208,-0.573c0.139,-0.151 0.324,-0.226 0.558,-0.226l5.306,-0c1.447,-0 2.769,0.245 3.96,0.735c1.194,0.49 2.213,1.181 3.053,2.076c0.842,0.894 1.497,1.964 1.965,3.21c0.469,1.243 0.703,2.632 0.703,4.164Z" style="fill:#ed1c24;fill-rule:nonzero;"/><path d="M89.105,32.26c-0.149,0.148 -0.338,0.221 -0.573,0.221l-2.196,-0c-0.236,-0 -0.421,-0.073 -0.557,-0.223c-0.137,-0.148 -0.208,-0.339 -0.208,-0.574l0,-8.758l-7.373,-0l0,8.758c0,0.235 -0.073,0.426 -0.223,0.574c-0.146,0.15 -0.34,0.223 -0.572,0.223l-2.196,-0c-0.234,-0 -0.419,-0.073 -0.558,-0.221c-0.137,-0.15 -0.207,-0.341 -0.207,-0.575l-0,-19.699c-0,-0.235 0.07,-0.426 0.207,-0.573c0.139,-0.151 0.324,-0.226 0.558,-0.226l2.196,-0c0.232,-0 0.426,0.075 0.572,0.226c0.15,0.147 0.223,0.338 0.223,0.573l0,7.817l7.373,-0l0,-7.817c0,-0.235 0.071,-0.426 0.208,-0.573c0.136,-0.151 0.321,-0.226 0.557,-0.226l2.196,-0c0.235,-0 0.424,0.075 0.573,0.226c0.148,0.147 0.224,0.338 0.224,0.573l-0,19.699c-0,0.234 -0.076,0.425 -0.224,0.575Z" style="fill:#ed1c24;fill-rule:nonzero;"/><path d="M104.202,26.26c-0,-1.235 -0.422,-2.209 -1.261,-2.921c-0.844,-0.713 -1.937,-1.07 -3.282,-1.07l-3.486,-0l0,8.336l3.486,-0c0.619,-0 1.205,-0.106 1.76,-0.321c0.555,-0.212 1.04,-0.51 1.455,-0.894c0.417,-0.383 0.741,-0.84 0.975,-1.371c0.237,-0.533 0.353,-1.119 0.353,-1.759Zm-0.515,-9.652c0,-1.085 -0.373,-1.947 -1.119,-2.585c-0.748,-0.638 -1.717,-0.956 -2.912,-0.956l-3.483,-0l0,7.37l3.389,-0c0.532,-0 1.044,-0.094 1.536,-0.286c0.488,-0.192 0.925,-0.458 1.308,-0.799c0.384,-0.339 0.693,-0.744 0.929,-1.212c0.233,-0.467 0.352,-0.978 0.352,-1.532Zm2.935,9.744c-0,0.957 -0.193,1.818 -0.576,2.585c-0.383,0.767 -0.909,1.411 -1.582,1.935c-0.669,0.518 -1.451,0.919 -2.345,1.197c-0.893,0.275 -1.841,0.412 -2.841,0.412l-4.886,-0c-0.15,-0 -0.278,-0.053 -0.383,-0.156c-0.107,-0.108 -0.161,-0.237 -0.161,-0.384l0,-20.241c0,-0.15 0.054,-0.272 0.161,-0.369c0.105,-0.096 0.233,-0.144 0.383,-0.144l5.272,-0c0.832,-0 1.636,0.108 2.413,0.318c0.778,0.213 1.46,0.54 2.046,0.975c0.588,0.437 1.053,0.99 1.406,1.661c0.353,0.668 0.528,1.461 0.528,2.377c0,0.573 -0.13,1.122 -0.385,1.645c-0.256,0.519 -0.576,0.988 -0.96,1.402c-0.385,0.416 -0.807,0.767 -1.266,1.053c-0.459,0.288 -0.901,0.496 -1.327,0.623c0.593,0.106 1.165,0.304 1.706,0.592c0.543,0.288 1.023,0.653 1.439,1.101c0.413,0.446 0.743,0.962 0.988,1.549c0.245,0.584 0.37,1.208 0.37,1.869Z" style="fill:#54666f;fill-rule:nonzero;"/><path d="M125.53,31.94c-0.042,0.147 -0.117,0.277 -0.223,0.385c-0.108,0.103 -0.234,0.156 -0.384,0.156l-1.597,-0c-0.147,-0 -0.283,-0.053 -0.399,-0.156c-0.117,-0.108 -0.196,-0.238 -0.24,-0.385l-3.53,-17.849l-3.468,17.849c-0.042,0.147 -0.122,0.277 -0.24,0.385c-0.116,0.103 -0.252,0.156 -0.399,0.156l-1.597,-0c-0.147,-0 -0.281,-0.053 -0.398,-0.156c-0.118,-0.108 -0.197,-0.238 -0.24,-0.385l-4.099,-20.243c-0.042,-0.149 -0.016,-0.272 0.079,-0.367c0.098,-0.095 0.221,-0.143 0.369,-0.143l1.341,-0c0.34,-0 0.554,0.17 0.639,0.51l3.204,17.88l3.468,-17.88c0.084,-0.34 0.297,-0.51 0.637,-0.51l1.597,-0c0.322,-0 0.522,0.17 0.608,0.51l3.497,17.88l3.174,-17.88c0.085,-0.34 0.287,-0.51 0.608,-0.51l1.277,-0c0.147,-0 0.264,0.048 0.352,0.143c0.085,0.095 0.107,0.218 0.063,0.367l-4.099,20.243Z" style="fill:#54666f;fill-rule:nonzero;"/><path d="M57.869,62.666l-1.783,-2.812l1.718,-2.594l1.085,-0l-1.814,2.528l2.009,2.878l-1.215,-0Zm-2.746,-0l-0,-5.406l0.953,-0l0,5.406l-0.953,-0Z" style="fill:#54666f;fill-rule:nonzero;"/><path d="M61.944,60.694l-0.536,0.123c-0.114,0.026 -0.225,0.064 -0.333,0.113c-0.108,0.049 -0.204,0.105 -0.288,0.17l-0.203,0.215l-0.077,0.239c-0,0.167 0.056,0.297 0.17,0.389c0.114,0.091 0.244,0.137 0.39,0.137c0.103,-0 0.204,-0.022 0.304,-0.069c0.1,-0.045 0.19,-0.104 0.268,-0.174l0.2,-0.227l0.105,-0.226l-0,-0.69Zm0.039,1.972l0.002,-0.554l-0.122,0.166c-0.065,0.073 -0.145,0.145 -0.239,0.215c-0.095,0.071 -0.204,0.132 -0.329,0.186c-0.124,0.055 -0.257,0.081 -0.397,0.081c-0.406,-0 -0.723,-0.106 -0.949,-0.316c-0.228,-0.21 -0.341,-0.486 -0.341,-0.826c-0,-0.183 0.05,-0.351 0.15,-0.506c0.1,-0.154 0.23,-0.291 0.389,-0.412c0.16,-0.122 0.336,-0.222 0.528,-0.304c0.191,-0.08 0.379,-0.14 0.563,-0.178l0.706,-0.146l-0,-0.153c-0,-0.195 -0.062,-0.366 -0.186,-0.515c-0.124,-0.148 -0.311,-0.222 -0.559,-0.222c-0.092,-0 -0.192,0.016 -0.3,0.049c-0.108,0.032 -0.212,0.071 -0.312,0.117c-0.1,0.046 -0.188,0.091 -0.263,0.134l-0.154,0.088l-0.3,-0.664c0.027,-0.015 0.088,-0.046 0.182,-0.088c0.095,-0.043 0.209,-0.088 0.345,-0.133c0.135,-0.047 0.286,-0.088 0.453,-0.126c0.168,-0.038 0.341,-0.057 0.519,-0.057c0.443,-0 0.795,0.12 1.057,0.36c0.262,0.241 0.393,0.572 0.393,0.993l-0,2.811l-0.836,-0Z" style="fill:#54666f;fill-rule:nonzero;"/><path d="M66.239,59.468l-0.162,-0.085l-0.17,-0.053c-0.114,-0 -0.216,0.026 -0.308,0.077c-0.092,0.051 -0.172,0.112 -0.239,0.182l-0.166,0.215l-0.073,0.166l-0,2.696l-0.906,-0l0,-4.07l0.867,-0l-0.002,0.555l0.097,-0.154l0.195,-0.215c0.081,-0.073 0.177,-0.138 0.287,-0.195c0.111,-0.057 0.237,-0.085 0.377,-0.085c0.087,-0 0.184,0.019 0.292,0.057c0.108,0.038 0.178,0.073 0.211,0.105l-0.3,0.804Z" style="fill:#54666f;fill-rule:nonzero;"/><path d="M68.94,62.699c-0.133,0.04 -0.264,0.061 -0.393,0.061c-0.21,-0 -0.382,-0.034 -0.514,-0.101c-0.132,-0.068 -0.237,-0.156 -0.316,-0.263c-0.078,-0.108 -0.131,-0.233 -0.161,-0.372c-0.03,-0.141 -0.045,-0.281 -0.045,-0.421l-0,-4.679l0.914,-0l-0,4.63c-0,0.135 0.015,0.243 0.045,0.324l0.166,0.121l0.142,-0.045l0.134,-0.093l0.307,0.737c-0.054,0.027 -0.147,0.061 -0.279,0.101Z" style="fill:#54666f;fill-rule:nonzero;"/><path d="M72.735,61.448c-0,0.178 -0.036,0.348 -0.109,0.506c-0.073,0.16 -0.175,0.299 -0.307,0.417c-0.133,0.119 -0.29,0.214 -0.474,0.283c-0.183,0.071 -0.385,0.106 -0.607,0.106c-0.173,-0 -0.336,-0.013 -0.49,-0.036c-0.154,-0.025 -0.293,-0.053 -0.417,-0.085c-0.124,-0.032 -0.234,-0.068 -0.328,-0.106c-0.095,-0.038 -0.169,-0.073 -0.223,-0.105l0.3,-0.704l0.17,0.094c0.081,0.04 0.176,0.079 0.287,0.117c0.111,0.037 0.227,0.071 0.348,0.101c0.123,0.03 0.237,0.044 0.345,0.044c0.162,-0 0.301,-0.043 0.417,-0.13c0.116,-0.086 0.174,-0.202 0.174,-0.347c0,-0.086 -0.047,-0.169 -0.142,-0.247c-0.094,-0.079 -0.212,-0.16 -0.352,-0.244c-0.141,-0.083 -0.295,-0.169 -0.463,-0.258c-0.167,-0.089 -0.321,-0.187 -0.462,-0.291c-0.141,-0.106 -0.258,-0.219 -0.352,-0.341c-0.095,-0.121 -0.143,-0.254 -0.143,-0.401c0,-0.188 0.038,-0.364 0.114,-0.525c0.075,-0.162 0.179,-0.301 0.312,-0.418c0.132,-0.115 0.289,-0.207 0.469,-0.275c0.181,-0.067 0.374,-0.101 0.58,-0.101c0.129,-0 0.255,0.011 0.377,0.032c0.121,0.022 0.233,0.049 0.335,0.081c0.103,0.033 0.194,0.067 0.272,0.102l0.174,0.093l-0.299,0.68l-0.126,-0.085l-0.215,-0.105c-0.081,-0.035 -0.167,-0.066 -0.259,-0.094c-0.091,-0.026 -0.181,-0.04 -0.267,-0.04c-0.184,-0 -0.327,0.052 -0.43,0.153c-0.102,0.104 -0.154,0.231 -0.154,0.381c-0,0.081 0.049,0.162 0.146,0.243c0.097,0.082 0.218,0.164 0.361,0.248c0.143,0.083 0.298,0.169 0.465,0.258c0.168,0.089 0.324,0.185 0.467,0.287c0.143,0.103 0.264,0.212 0.361,0.328c0.096,0.117 0.145,0.244 0.145,0.384Z" style="fill:#54666f;fill-rule:nonzero;"/><path d="M75.903,59.468l-0.162,-0.085l-0.17,-0.053c-0.115,-0 -0.217,0.026 -0.309,0.077c-0.091,0.051 -0.171,0.112 -0.24,0.182l-0.166,0.215l-0.072,0.166l0,2.696l-0.906,-0l0,-4.07l0.867,-0l-0.002,0.555l0.098,-0.154l0.194,-0.215c0.081,-0.073 0.177,-0.138 0.288,-0.195c0.11,-0.057 0.236,-0.085 0.377,-0.085c0.086,-0 0.184,0.019 0.291,0.057c0.107,0.038 0.178,0.073 0.211,0.105l-0.299,0.804Z" style="fill:#54666f;fill-rule:nonzero;"/><path d="M79.479,62.666l0,-0.552l-0.121,0.162l-0.219,0.213c-0.088,0.073 -0.187,0.137 -0.3,0.19c-0.114,0.055 -0.235,0.081 -0.366,0.081c-0.242,-0 -0.449,-0.042 -0.617,-0.126c-0.166,-0.083 -0.303,-0.192 -0.408,-0.328c-0.106,-0.135 -0.182,-0.29 -0.229,-0.465c-0.044,-0.176 -0.068,-0.358 -0.068,-0.547l-0,-2.698l0.906,-0l0,2.659l0.03,0.256l0.093,0.247l0.182,0.186c0.08,0.049 0.176,0.074 0.289,0.074c0.104,-0 0.201,-0.029 0.293,-0.085c0.092,-0.057 0.176,-0.125 0.248,-0.203l0.176,-0.231l0.072,-0.171l-0,-2.732l0.906,-0l-0,4.07l-0.867,-0Z" style="fill:#54666f;fill-rule:nonzero;"/><path d="M84.094,62.666l-0,-2.659c-0,-0.087 -0.011,-0.176 -0.035,-0.268c-0.025,-0.091 -0.062,-0.174 -0.115,-0.248l-0.195,-0.177c-0.08,-0.047 -0.17,-0.07 -0.274,-0.07c-0.109,-0 -0.211,0.027 -0.306,0.077c-0.096,0.051 -0.18,0.114 -0.254,0.187l-0.18,0.227l-0.078,0.199l0,2.732l-0.906,-0l0,-5.742l0.906,-0l0.004,2.224l0.105,-0.158l0.213,-0.217c0.086,-0.073 0.186,-0.136 0.299,-0.19c0.115,-0.055 0.236,-0.081 0.367,-0.081c0.248,-0 0.459,0.044 0.633,0.134c0.174,0.089 0.314,0.204 0.422,0.344c0.109,0.14 0.185,0.295 0.232,0.463c0.047,0.167 0.069,0.329 0.069,0.485l0,2.738l-0.907,-0Z" style="fill:#54666f;fill-rule:nonzero;"/><path d="M88.571,59.929c-0.033,-0.119 -0.08,-0.235 -0.142,-0.346c-0.063,-0.11 -0.141,-0.205 -0.234,-0.283c-0.094,-0.079 -0.208,-0.118 -0.336,-0.118c-0.129,-0 -0.245,0.036 -0.34,0.109c-0.098,0.073 -0.178,0.163 -0.241,0.269c-0.062,0.105 -0.109,0.218 -0.14,0.34c-0.033,0.122 -0.053,0.231 -0.057,0.329l1.547,-0c-0.006,-0.081 -0.025,-0.181 -0.057,-0.3Zm-1.505,0.901c-0,0.135 0.017,0.273 0.056,0.415c0.037,0.143 0.096,0.274 0.174,0.393c0.078,0.118 0.176,0.217 0.295,0.294c0.119,0.078 0.26,0.117 0.422,0.117c0.119,-0 0.234,-0.014 0.348,-0.04c0.113,-0.027 0.218,-0.059 0.312,-0.094c0.094,-0.035 0.178,-0.073 0.252,-0.114l0.166,-0.109l0.307,0.736c-0.043,0.022 -0.11,0.052 -0.202,0.089c-0.091,0.038 -0.203,0.074 -0.334,0.109c-0.128,0.035 -0.273,0.067 -0.431,0.094c-0.16,0.026 -0.326,0.04 -0.5,0.04c-0.356,-0 -0.649,-0.07 -0.877,-0.21c-0.231,-0.141 -0.41,-0.32 -0.539,-0.539c-0.129,-0.219 -0.221,-0.46 -0.272,-0.725c-0.051,-0.263 -0.076,-0.517 -0.076,-0.76c0,-0.195 0.035,-0.41 0.106,-0.648c0.068,-0.237 0.173,-0.457 0.314,-0.66c0.141,-0.201 0.316,-0.371 0.527,-0.51c0.209,-0.137 0.454,-0.206 0.729,-0.206c0.318,-0 0.582,0.071 0.793,0.215c0.211,0.143 0.381,0.317 0.508,0.523c0.127,0.206 0.215,0.426 0.265,0.661c0.053,0.236 0.078,0.446 0.078,0.629l0,0.3l-2.421,-0Z" style="fill:#54666f;fill-rule:nonzero;"/></svg>